<mxfile host="65bd71144e">
    <diagram id="rVp-us0SeA4E6KMEe4CU" name="Page-1">
        <mxGraphModel dx="864" dy="733" grid="1" gridSize="10" guides="1" tooltips="1" connect="1" arrows="1" fold="1" page="1" pageScale="1" pageWidth="850" pageHeight="1100" math="0" shadow="0">
            <root>
                <mxCell id="0"/>
                <mxCell id="1" parent="0"/>
                <mxCell id="2" value="" style="rounded=1;whiteSpace=wrap;html=1;fillColor=#76608a;fontColor=#ffffff;strokeColor=#432D57;" vertex="1" parent="1">
                    <mxGeometry x="90" y="120" width="390" height="160" as="geometry"/>
                </mxCell>
                <mxCell id="12" style="edgeStyle=none;html=1;entryX=0.5;entryY=1;entryDx=0;entryDy=0;exitX=0.5;exitY=0;exitDx=0;exitDy=0;" edge="1" parent="1" source="3" target="5">
                    <mxGeometry relative="1" as="geometry">
                        <mxPoint x="370" y="350" as="sourcePoint"/>
                    </mxGeometry>
                </mxCell>
                <mxCell id="13" style="edgeStyle=none;html=1;exitX=0.5;exitY=0;exitDx=0;exitDy=0;entryX=0.5;entryY=1;entryDx=0;entryDy=0;" edge="1" parent="1" source="3" target="4">
                    <mxGeometry relative="1" as="geometry"/>
                </mxCell>
                <mxCell id="3" value="" style="rounded=1;whiteSpace=wrap;html=1;fillColor=#916306;fontColor=#000000;strokeColor=#BD7000;" vertex="1" parent="1">
                    <mxGeometry x="90" y="370" width="640" height="140" as="geometry"/>
                </mxCell>
                <mxCell id="4" value="" style="rounded=1;whiteSpace=wrap;html=1;fillColor=#76608a;fontColor=#ffffff;strokeColor=#432D57;" vertex="1" parent="1">
                    <mxGeometry x="495" y="120" width="235" height="160" as="geometry"/>
                </mxCell>
                <mxCell id="5" value="Плагин Obsidian - GIT" style="rounded=1;whiteSpace=wrap;html=1;fillColor=#916306;" vertex="1" parent="1">
                    <mxGeometry x="110" y="200" width="350" height="60" as="geometry"/>
                </mxCell>
                <mxCell id="6" value="Хранилище (Vault)&lt;br&gt;Рабочая копия заметок" style="rounded=1;whiteSpace=wrap;html=1;fillColor=#76608a;fontColor=#ffffff;strokeColor=#432D57;" vertex="1" parent="1">
                    <mxGeometry x="110" y="130" width="170" height="60" as="geometry"/>
                </mxCell>
                <mxCell id="7" value="Резервная копия&amp;nbsp;&lt;br&gt;с историе изменений" style="rounded=1;whiteSpace=wrap;html=1;strokeColor=#B20000;fillColor=#6B0F06;fontColor=#ffffff;" vertex="1" parent="1">
                    <mxGeometry x="290" y="130" width="160" height="60" as="geometry"/>
                </mxCell>
                <mxCell id="8" value="Плагин Obsidian - GIT" style="rounded=1;whiteSpace=wrap;html=1;fillColor=#916306;" vertex="1" parent="1">
                    <mxGeometry x="510" y="200" width="200" height="60" as="geometry"/>
                </mxCell>
                <mxCell id="9" value="Хранилище (Vault)&lt;br&gt;Рабочая копия заметок" style="rounded=1;whiteSpace=wrap;html=1;fillColor=#76608a;fontColor=#ffffff;strokeColor=#432D57;" vertex="1" parent="1">
                    <mxGeometry x="510" y="130" width="200" height="60" as="geometry"/>
                </mxCell>
                <mxCell id="10" value="Приватный репозиторий с историей изменений" style="rounded=1;whiteSpace=wrap;html=1;strokeColor=#1F1529;fillColor=#6B0F06;" vertex="1" parent="1">
                    <mxGeometry x="135" y="400" width="545" height="80" as="geometry"/>
                </mxCell>
                <mxCell id="14" value="Obsidian Desktop" style="rounded=1;whiteSpace=wrap;html=1;strokeColor=#314354;fillColor=#647687;fontColor=#ffffff;" vertex="1" parent="1">
                    <mxGeometry x="90" y="80" width="120" height="30" as="geometry"/>
                </mxCell>
                <mxCell id="15" value="Obsidian Mobile" style="rounded=1;whiteSpace=wrap;html=1;strokeColor=#314354;fillColor=#647687;fontColor=#ffffff;" vertex="1" parent="1">
                    <mxGeometry x="495" y="80" width="120" height="30" as="geometry"/>
                </mxCell>
                <mxCell id="16" value="Хостинг Git" style="rounded=1;whiteSpace=wrap;html=1;strokeColor=#314354;fillColor=#647687;fontColor=#ffffff;" vertex="1" parent="1">
                    <mxGeometry x="90" y="330" width="120" height="30" as="geometry"/>
                </mxCell>
                <mxCell id="17" value="git token" style="text;strokeColor=none;fillColor=none;align=left;verticalAlign=middle;spacingLeft=4;spacingRight=4;overflow=hidden;points=[[0,0.5],[1,0.5]];portConstraint=eastwest;rotatable=0;whiteSpace=wrap;html=1;" vertex="1" parent="1">
                    <mxGeometry x="290" y="310" width="80" height="30" as="geometry"/>
                </mxCell>
                <mxCell id="18" value="git token" style="text;strokeColor=none;fillColor=none;align=left;verticalAlign=middle;spacingLeft=4;spacingRight=4;overflow=hidden;points=[[0,0.5],[1,0.5]];portConstraint=eastwest;rotatable=0;whiteSpace=wrap;html=1;" vertex="1" parent="1">
                    <mxGeometry x="530" y="310" width="80" height="30" as="geometry"/>
                </mxCell>
            </root>
        </mxGraphModel>
    </diagram>
</mxfile>